# xmcd
#
# Track frame offsets:
#	150
#	9925
#	27833
#	45733
#	72237
#	90517
#	107518
#	125222
#	137104
#	152972
#	170774
#	184000
#	198770
#	214951
#	237483
#	250513
#	260422
#	277452
#	311645
#	340497
#
# Disc length: 4764
#
# Revision: 2
# Processed by: cddbd v1.5.1PL0 Copyright (c) Steve Scherf et al.
# Submitted via: audiograbber 1.80
# Normalized: r1:DSETVAR2
#
DISCID=2b129a14
DTITLE=Various Artist - All Stars Disco #12
DYEAR=1900
DGENRE=
TTITLE0=The Champs - Tequila
TTITLE1=Bad Boys Blue - Pretty Young Girl
TTITLE2=Cher - Believe
TTITLE3=Eddy Huntington - U.S.S.R.
TTITLE4=Laura Branigan - Self Control
TTITLE5=Era - Ameno
TTITLE6=Chris Norman and Suzi Quatro - Stumblin' In
TTITLE7=Joe Dolan - Make Me Act The Fool
TTITLE8=Vaya Con Dios - I Don't Want To Know
TTITLE9=Sandra - Maria Magdalena
TTITLE10=Acido - Di Da Di Dam (Phone Mix)
TTITLE11=Pupo - Su Di Noi
TTITLE12=Yaki - Da
TTITLE13=Scotch - Disco Band
TTITLE14=Depeche Mode - Never Turn Your Back On Mother Earth
TTITLE15=Jan Holland - De Vogelt Jes Dans
TTITLE16=Snap - The Power
TTITLE17=Mr. Zivago - Little Russian
TTITLE18=Michael Jackson - Heal The World
TTITLE19=Baltimora - Tarsan Boy
EXTD=
EXTT0=
EXTT1=
EXTT2=
EXTT3=
EXTT4=
EXTT5=
EXTT6=
EXTT7=
EXTT8=
EXTT9=
EXTT10=
EXTT11=
EXTT12=
EXTT13=
EXTT14=
EXTT15=
EXTT16=
EXTT17=
EXTT18=
EXTT19=
PLAYORDER=
